<svg width="44" height="44" viewBox="0 0 44 44" fill="none" xmlns="http://www.w3.org/2000/svg">
<g clip-path="url(#clip0_26886_498)">
<g filter="url(#filter0_d_26886_498)">
<path d="M43.3206 4.37073C42.7831 3.71344 41.9781 3.35156 41.0536 3.35156C40.5511 3.35156 40.0187 3.45731 39.4715 3.66644L2.22633 17.8841C0.249764 18.6384 -0.0164409 19.7703 0.000679409 20.3779C0.0177997 20.9855 0.347786 22.1007 2.36396 22.7422C2.37605 22.7459 2.38813 22.7496 2.40022 22.753L10.1259 24.9638L14.3039 36.9112C14.8736 38.5399 16.1522 39.5517 17.6414 39.5517C18.5803 39.5517 19.5038 39.1583 20.3121 38.4144L25.0907 34.0145L32.0218 39.5954L32.0241 39.597L32.0899 39.6501C32.096 39.6548 32.1024 39.6598 32.1084 39.6645C32.8788 40.2621 33.7197 40.5776 34.5412 40.5779C36.1461 40.5779 37.4244 39.3899 37.7967 37.5517L43.8993 7.41849C44.1444 6.20898 43.9389 5.12671 43.3206 4.37073ZM12.7104 24.5439L27.6155 16.9294L18.3346 26.791C18.1825 26.9525 18.0747 27.1502 18.0217 27.3654L16.2321 34.6144L12.7104 24.5439ZM18.5655 36.5177C18.5038 36.5745 18.4417 36.6252 18.3796 36.6718L20.0399 29.9472L23.0601 32.3793L18.5655 36.5177ZM41.3725 6.90656L35.27 37.0401C35.2112 37.3284 35.0236 37.9995 34.5412 37.9995C34.3028 37.9995 34.0034 37.8696 33.6969 37.6336L25.843 31.3098L25.8393 31.3071L21.1661 27.544L34.5875 13.2827C35.0172 12.8262 35.0561 12.1269 34.6798 11.6254C34.3032 11.1239 33.6207 10.9661 33.0624 11.2514L10.9879 22.5287L3.1572 20.2883L40.391 6.07504C40.7055 5.95486 40.9251 5.92969 41.0536 5.92969C41.1325 5.92969 41.2728 5.93909 41.3249 6.0032C41.3933 6.08679 41.4806 6.3718 41.3725 6.90656Z" fill="#2352DE"/>
</g>
</g>
<defs>
<filter id="filter0_d_26886_498" x="-12.0001" y="-8.64844" width="74.0001" height="67.2263" filterUnits="userSpaceOnUse" color-interpolation-filters="sRGB">
<feFlood flood-opacity="0" result="BackgroundImageFix"/>
<feColorMatrix in="SourceAlpha" type="matrix" values="0 0 0 0 0 0 0 0 0 0 0 0 0 0 0 0 0 0 127 0" result="hardAlpha"/>
<feOffset dx="3" dy="3"/>
<feGaussianBlur stdDeviation="7.5"/>
<feComposite in2="hardAlpha" operator="out"/>
<feColorMatrix type="matrix" values="0 0 0 0 0 0 0 0 0 0 0 0 0 0 0 0 0 0 0.15 0"/>
<feBlend mode="normal" in2="BackgroundImageFix" result="effect1_dropShadow_26886_498"/>
<feBlend mode="normal" in="SourceGraphic" in2="effect1_dropShadow_26886_498" result="shape"/>
</filter>
<clipPath id="clip0_26886_498">
<rect width="44" height="44" fill="white"/>
</clipPath>
</defs>
</svg>
